<?xml version="1.0" encoding="UTF-8"?>
<svg version="1.1" xmlns="http://www.w3.org/2000/svg" width="1200" height="1200">
<path d="M0 0 C2.29920111 2.29920111 2.68490623 3.71159754 3.60400391 6.80102539 C3.90416412 7.79868423 4.20432434 8.79634308 4.51358032 9.82423401 C4.83136444 10.90446335 5.14914856 11.98469269 5.4765625 13.09765625 C5.80667328 14.20225693 6.13678406 15.3068576 6.47689819 16.44493103 C7.53226887 19.98236446 8.57853918 23.52242185 9.625 27.0625 C10.33798459 29.4539422 11.05151928 31.84522047 11.765625 34.23632812 C14.37331184 42.99143463 14.37331184 42.99143463 15.65478516 47.32836914 C15.91522614 48.20836075 16.17566711 49.08835236 16.44400024 49.99501038 C17 52 17 52 17 53 C12.38 53 7.76 53 3 53 C3 102.5 3 152 3 203 C4.65 203.33 6.3 203.66 8 204 C10.83212798 206.50281077 12.90305891 208.85458837 15 212 C15 212.99 15 213.98 15 215 C15.66 215 16.32 215 17 215 C17 216.98 17 218.96 17 221 C16.34 221 15.68 221 15 221 C14.79375 221.886875 14.5875 222.77375 14.375 223.6875 C12.57829537 228.01592478 10.85841274 229.37627933 7 232 C5.68 232 4.36 232 3 232 C3 346.84 3 461.68 3 580 C4.65 580.66 6.3 581.32 8 582 C8.33 583.32 8.66 584.64 9 586 C125.82 586 242.64 586 363 586 C363.66 584.68 364.32 583.36 365 582 C367.29072112 579.70927888 368.66539598 579.058192 371.875 578.5 C376.24467689 579.1991483 377.88788069 580.88788069 381 584 C381 584.66 381 585.32 381 586 C432.15 586 483.3 586 536 586 C536 581.71 536 577.42 536 573 C545.1299001 574.58624128 553.85362672 577.26633084 562.6875 580 C564.90185509 580.68029788 567.11662324 581.35923529 569.33149719 582.0378418 C570.69874874 582.45727663 572.06562885 582.87792507 573.43205261 583.30004883 C576.55229837 584.26214942 579.67612253 585.19015271 582.81958008 586.07421875 C585.44385495 586.83811299 587.62779927 587.67156759 590 589 C587.70461083 591.29538917 586.2977974 591.6836807 583.21484375 592.60400391 C582.2204126 592.90416412 581.22598145 593.20432434 580.20141602 593.51358032 C579.12432373 593.83136444 578.04723145 594.14914856 576.9375 594.4765625 C575.835271 594.80667328 574.73304199 595.13678406 573.59741211 595.47689819 C571.26473623 596.1741457 568.93112958 596.86828559 566.59667969 597.55957031 C563.0128298 598.62119948 559.43200729 599.69257446 555.8515625 600.765625 C553.58871323 601.44067953 551.32569786 602.11517759 549.0625 602.7890625 C547.98540771 603.11089508 546.90831543 603.43272766 545.79858398 603.76431274 C544.80415283 604.05816864 543.80972168 604.35202454 542.78515625 604.65478516 C541.90738525 604.91522614 541.02961426 605.17566711 540.12524414 605.44400024 C538 606 538 606 536 606 C536 601.38 536 596.76 536 592 C484.85 592 433.7 592 381 592 C380.34 593.65 379.68 595.3 379 597 C378.29875 597.474375 377.5975 597.94875 376.875 598.4375 C376.25625 598.953125 375.6375 599.46875 375 600 C374.66602213 603.12586875 374.66602213 603.12586875 375 606 C372.69 606 370.38 606 368 606 C368.103125 604.948125 368.20625 603.89625 368.3125 602.8125 C367.92500811 598.08509898 366.47463837 597.04030858 363 594 C363 593.34 363 592.68 363 592 C318.09792428 592.01309369 273.19593799 592.05235246 228.29391991 592.12685562 C222.99656539 592.1356227 217.69921055 592.14417245 212.40185547 592.15258789 C211.3472177 592.15426695 210.29257992 592.15594602 209.20598343 592.15767596 C192.11441806 592.18436837 175.02288623 592.19344264 157.93130216 592.19604143 C140.40248346 592.19909753 122.87376196 592.22100435 105.34498715 592.26052457 C94.52292611 592.28432631 83.70105889 592.29330635 72.87897524 592.28351311 C65.46459864 592.27821009 58.05039622 592.29116596 50.63606921 592.3186629 C46.35403427 592.33399843 42.07238897 592.34110832 37.79034233 592.32659721 C33.87312359 592.31349959 29.95666194 592.32323194 26.039529 592.35143773 C24.61955886 592.35757623 23.19952219 592.35520003 21.77958593 592.34362926 C19.85480054 592.32916695 17.92984939 592.34824365 16.00512314 592.36914349 C14.93431181 592.37028265 13.86350048 592.37142181 12.76024032 592.37259549 C9.06572584 593.21236116 8.1107223 594.9562984 6 598 C5.34 598.33 4.68 598.66 4 599 C3.67 715.49 3.34 831.98 3 952 C4.65 952.66 6.3 953.32 8 954 C10.39442371 956.31185738 10.94472919 957.628896 11.4375 960.9375 C10.89265537 964.75141243 9.74338061 966.33282441 7 969 C5.68 969.33 4.36 969.66 3 970 C3 1021.15 3 1072.3 3 1125 C7.62 1125 12.24 1125 17 1125 C14.60324477 1135.07138261 11.72714194 1144.97031691 8.7565918 1154.88525391 C7.92941358 1157.65204793 7.11209696 1160.42164361 6.29492188 1163.19140625 C5.7688276 1164.9533038 5.24215635 1166.7150292 4.71484375 1168.4765625 C4.47209213 1169.30354645 4.22934052 1170.1305304 3.97923279 1170.98257446 C2.22870785 1176.77129215 2.22870785 1176.77129215 0 1179 C-2.50869502 1175.23695746 -3.65312215 1171.96540117 -4.625 1167.5625 C-6.92588401 1157.60958225 -9.99669694 1147.87840819 -13.00244141 1138.12133789 C-13.19925507 1137.47699799 -13.39606873 1136.83265808 -13.59884644 1136.16879272 C-14.14171063 1134.39171262 -14.68936748 1132.61609864 -15.23730469 1130.84057617 C-16 1128 -16 1128 -16 1125 C-11.71 1125 -7.42 1125 -3 1125 C-3 1073.85 -3 1022.7 -3 970 C-4.32 969.34 -5.64 968.68 -7 968 C-9.45717992 964.31423012 -9.69957317 961.28072154 -9 957 C-7.125 954 -7.125 954 -5 952 C-4.34 952 -3.68 952 -3 952 C-3 835.18 -3 718.36 -3 598 C-4.32 597.67 -5.64 597.34 -7 597 C-7.66 595.35 -8.32 593.7 -9 592 C-125.49 592 -241.98 592 -362 592 C-362.66 593.32 -363.32 594.64 -364 596 C-366.125 597.25 -366.125 597.25 -368 598 C-368 598.66 -368 599.32 -368 600 C-370.91916538 600.34751969 -373.13195476 600.53280018 -375.69921875 598.95703125 C-377.88339965 597.15362765 -379.72206192 595.55587616 -381 593 C-431.82 592.67 -482.64 592.34 -535 592 C-535 596.62 -535 601.24 -535 606 C-546.5717734 603.28357523 -557.88540767 599.77936324 -569.25 596.3125 C-571.26684535 595.69960077 -573.2837718 595.08696835 -575.30078125 594.47460938 C-580.20146153 592.98614818 -585.1010293 591.49407782 -590 590 C-586.3846573 586.3846573 -582.53471102 585.55925517 -577.625 584.4375 C-567.66171807 582.08172217 -557.90114008 579.01057721 -548.12158203 575.99780273 C-547.47720688 575.80095383 -546.83283173 575.60410492 -546.16893005 575.40129089 C-544.39182048 574.85832735 -542.61615331 574.31064939 -540.84057617 573.76269531 C-538 573 -538 573 -535 573 C-535 577.29 -535 581.58 -535 586 C-483.85 586 -432.7 586 -380 586 C-379.67 584.68 -379.34 583.36 -379 582 C-375.97792605 579.98528403 -375.08273301 579.66280966 -371.625 579.5625 C-370.87476563 579.52253906 -370.12453125 579.48257813 -369.3515625 579.44140625 C-367 580 -367 580 -365.22608185 582.49522972 C-361.59100326 586.20410207 -357.04425392 585.61699001 -352.13879442 585.66871703 C-350.76956858 585.65790711 -349.40034641 585.64662385 -348.03112793 585.63491821 C-346.57431167 585.64067928 -345.11750268 585.6486203 -343.6607089 585.65855443 C-339.65670569 585.67945357 -335.65329728 585.66909902 -331.64929175 585.65362334 C-327.3315473 585.64232616 -323.01390626 585.6597644 -318.69618225 585.67352295 C-310.23747824 585.6957774 -301.77899582 585.69094437 -293.32028306 585.67645974 C-286.44685617 585.66517617 -279.57349147 585.66363278 -272.70005798 585.66907883 C-271.2336858 585.67022807 -271.2336858 585.67022807 -269.73768994 585.67140054 C-267.75186525 585.67299914 -265.76604058 585.6746202 -263.78021592 585.6762635 C-245.15112321 585.69052746 -226.52215344 585.67411811 -207.89308089 585.64726166 C-191.90212906 585.6249223 -175.91135871 585.62880225 -159.92041016 585.65185547 C-141.35881769 585.67860204 -122.79733302 585.68915411 -104.23572397 585.67379415 C-102.25713 585.67220137 -100.27853602 585.67062952 -98.29994202 585.66907883 C-97.32638959 585.66830745 -96.35283717 585.66753607 -95.34978315 585.66674132 C-88.4831574 585.66242089 -81.61659992 585.66971826 -74.74998474 585.68147659 C-66.38390418 585.69548743 -58.01805822 585.69173153 -49.6520046 585.66507287 C-45.3819572 585.65191553 -41.11230121 585.6468147 -36.84225655 585.66331863 C-32.93506025 585.67819195 -29.02861904 585.67007426 -25.12149149 585.64343087 C-23.70636034 585.63783465 -22.29116571 585.64071202 -20.87607521 585.65280981 C-13.00421166 585.76245988 -13.00421166 585.76245988 -5.66689777 583.32361126 C-2.91279303 577.8322286 -3.31077835 572.22020951 -3.36076355 566.18730164 C-3.3544521 564.74754493 -3.34594937 563.30779643 -3.33544332 561.86806422 C-3.31291802 557.91142519 -3.32150963 553.95536873 -3.3351289 549.99871147 C-3.34438216 545.73217753 -3.32485453 541.46576474 -3.30880737 537.19926453 C-3.28495047 529.80718793 -3.27936287 522.41527808 -3.28615379 515.02316856 C-3.29594595 504.33543358 -3.27823214 493.64788374 -3.25378648 482.96017871 C-3.21487379 465.62050244 -3.19823258 448.28087904 -3.19555664 430.94116211 C-3.19290949 414.09640795 -3.17979854 397.25171559 -3.15258789 380.40698242 C-3.15091451 379.36882158 -3.14924113 378.33066073 -3.14751705 377.26104047 C-3.13905763 372.05293655 -3.13039221 366.844833 -3.12162435 361.6367296 C-3.04914302 318.42449722 -3.01278897 275.2122885 -3 232 C-3.78785889 231.8664209 -4.57571777 231.7328418 -5.38745117 231.59521484 C-8.46491726 230.89407828 -9.34474744 230.03511554 -11.3125 227.625 C-11.82425781 227.01914063 -12.33601562 226.41328125 -12.86328125 225.7890625 C-14 224 -14 224 -14 221 C-16.31 221 -18.62 221 -21 221 C-21 219.02 -21 217.04 -21 215 C-20.071875 214.95875 -19.14375 214.9175 -18.1875 214.875 C-16.6096875 214.441875 -16.6096875 214.441875 -15 214 C-13.37492804 211.1668838 -13.37492804 211.1668838 -12 208 C-8.87079975 205.03127156 -7.24872287 204.06218072 -3 203 C-3 153.5 -3 104 -3 53 C-7.29 53 -11.58 53 -16 53 C-12.94809824 39.70816471 -8.91984001 26.75629293 -4.84619141 13.74780273 C-4.14280849 11.46373616 -3.47102879 9.17659558 -2.828125 6.875 C-2.10691621 4.37118079 -1.26902974 2.26612453 0 0 Z " fill="#000000" transform="translate(605,16)"/>
<path d="M0 0 C3.78726143 1.81472944 5.23603402 3.98519769 6.8125 7.75 C9.63617907 17.51186194 9.25420565 29.7461937 5 39 C3.14632759 41.96587585 1.74765906 43.53004288 -1.1875 45.375 C-5.31512291 46.29224954 -8.91958942 46.11283925 -13 45 C-17.60469089 41.89683875 -19.13645721 38.07741314 -20.5 32.87890625 C-21.95713544 24.48899358 -22.58027576 13.30040825 -17.6015625 5.9296875 C-12.37220934 -0.37104533 -8.09151427 -0.79627058 0 0 Z M-13 7 C-14.55042674 11.65128023 -14.22574571 16.31542036 -14.25 21.1875 C-14.270625 22.20392578 -14.29125 23.22035156 -14.3125 24.26757812 C-14.34501981 30.56422564 -13.7611166 35.30602271 -11 41 C-8.74801309 42.88529093 -8.74801309 42.88529093 -6 43 C-3.17616277 41.8179286 -1.53295233 40.74613327 0.25 38.25 C3.35957225 28.92128324 2.97196238 17.33565585 0 8 C-1.59627061 4.85146536 -1.59627061 4.85146536 -4 3 C-8.45031293 1.99867959 -10.25865026 3.57331282 -13 7 Z " fill="#000000" transform="translate(654,625)"/>
<path d="M0 0 C0.99 0.33 1.98 0.66 3 1 C3 14.53 3 28.06 3 42 C6.465 42.495 6.465 42.495 10 43 C10 43.99 10 44.98 10 46 C3.07 46 -3.86 46 -11 46 C-11 45.01 -11 44.02 -11 43 C-7.535 42.505 -7.535 42.505 -4 42 C-4 30.45 -4 18.9 -4 7 C-5.98 7.99 -7.96 8.98 -10 10 C-12.375 9.6875 -12.375 9.6875 -14 9 C-14 8.01 -14 7.02 -14 6 C-13.15695313 5.65066406 -12.31390625 5.30132813 -11.4453125 4.94140625 C-10.34960938 4.48636719 -9.25390625 4.03132812 -8.125 3.5625 C-7.03445312 3.11003906 -5.94390625 2.65757812 -4.8203125 2.19140625 C-3.19441376 1.50456537 -1.57868226 0.78934113 0 0 Z " fill="#000000" transform="translate(199,624)"/>
<path d="M0 0 C0.495 20.295 0.495 20.295 1 41 C3.31 41.66 5.62 42.32 8 43 C8 43.99 8 44.98 8 46 C0.74 46 -6.52 46 -14 46 C-14 45.01 -14 44.02 -14 43 C-11.69 42.34 -9.38 41.68 -7 41 C-6.67 29.78 -6.34 18.56 -6 7 C-9.465 8.485 -9.465 8.485 -13 10 C-13.99 10 -14.98 10 -16 10 C-16 8.68 -16 7.36 -16 6 C-13.7101766 4.9955866 -11.4183401 3.99632388 -9.125 3 C-8.14853516 2.57074219 -8.14853516 2.57074219 -7.15234375 2.1328125 C-2.2265625 0 -2.2265625 0 0 0 Z " fill="#000000" transform="translate(1051,624)"/>
<path d="M0 0 C1.32 0 2.64 0 4 0 C4 4.62 4 9.24 4 14 C8.95 14 13.9 14 19 14 C19 15.65 19 17.3 19 19 C14.05 19 9.1 19 4 19 C4 23.62 4 28.24 4 33 C2.68 33 1.36 33 0 33 C0 28.38 0 23.76 0 19 C-4.62 19 -9.24 19 -14 19 C-14 17.35 -14 15.7 -14 14 C-9.38 14 -4.76 14 0 14 C0 9.38 0 4.76 0 0 Z " fill="#000000" transform="translate(1010,636)"/>
<path d="M0 0 C1.32 0 2.64 0 4 0 C4 4.62 4 9.24 4 14 C8.95 14 13.9 14 19 14 C19 15.65 19 17.3 19 19 C14.05 19 9.1 19 4 19 C4 23.62 4 28.24 4 33 C2.68 33 1.36 33 0 33 C0 28.38 0 23.76 0 19 C-4.62 19 -9.24 19 -14 19 C-14 17.35 -14 15.7 -14 14 C-9.38 14 -4.76 14 0 14 C0 9.38 0 4.76 0 0 Z " fill="#000000" transform="translate(649,174)"/>
<path d="M0 0 C-0.64656856 8.89031769 -2.87022567 17.37193748 -5 26 C-3.02 25.34 -1.04 24.68 1 24 C1 24.99 1 25.98 1 27 C-1.38582521 29.1549389 -4.06882042 30.69424348 -7 32 C-10 31.8125 -10 31.8125 -12 31 C-11.41640925 22.68383188 -9.26200586 14.98540674 -7 7 C-8.98 7.33 -10.96 7.66 -13 8 C-11.72249229 4.02553158 -9.29042104 2.70376535 -5.8515625 0.734375 C-4 0 -4 0 0 0 Z " fill="#000000" transform="translate(685,999)"/>
<path d="M0 0 C-0.64656856 8.89031769 -2.87022567 17.37193748 -5 26 C-3.02 25.34 -1.04 24.68 1 24 C1 24.99 1 25.98 1 27 C-1.38582521 29.1549389 -4.06882042 30.69424348 -7 32 C-10 31.8125 -10 31.8125 -12 31 C-11.41640925 22.68383188 -9.26200586 14.98540674 -7 7 C-8.98 7.33 -10.96 7.66 -13 8 C-11.72249229 4.02553158 -9.29042104 2.70376535 -5.8515625 0.734375 C-4 0 -4 0 0 0 Z " fill="#000000" transform="translate(685,176)"/>
<path d="M0 0 C10.56 0 21.12 0 32 0 C32 1.65 32 3.3 32 5 C21.44 5 10.88 5 0 5 C0 3.35 0 1.7 0 0 Z " fill="#000000" transform="translate(146,650)"/>
<path d="M0 0 C9.9 0 19.8 0 30 0 C30 1.32 30 2.64 30 4 C20.1 4 10.2 4 0 4 C0 2.68 0 1.36 0 0 Z " fill="#000000" transform="translate(636,1010)"/>
<path d="M0 0 C2.47598865 1.19805902 2.96367818 2.42179364 3.9375 4.9375 C2.6875 6.5 2.6875 6.5 0.9375 7.9375 C-1.125 7.875 -1.125 7.875 -3.0625 6.9375 C-4.3125 4.875 -4.3125 4.875 -5.0625 2.9375 C-2.64829882 -0.08025148 -2.64829882 -0.08025148 0 0 Z " fill="#C1C1C1" transform="translate(855.0625,877.0625)"/>
<path d="M0 0 C2.125 0.375 2.125 0.375 4 1 C4.625 3.375 4.625 3.375 5 6 C4.34 6.66 3.68 7.32 3 8 C0.375 7.625 0.375 7.625 -2 7 C-2.125 4.625 -2.125 4.625 -2 2 C-1.34 1.34 -0.68 0.68 0 0 Z " fill="#000000" transform="translate(683,984)"/>
<path d="M0 0 C1.32 1.32 2.64 2.64 4 4 C3.67 4.99 3.34 5.98 3 7 C0.4375 8.1875 0.4375 8.1875 -2 9 C-5 5.25 -5 5.25 -5 3 C-2.5 1.375 -2.5 1.375 0 0 Z " fill="#C5C5C5" transform="translate(822,903)"/>
<path d="M0 0 C2.31 0 4.62 0 7 0 C7 1.98 7 3.96 7 6 C5.0085944 6.38133299 3.00720923 6.71325582 1 7 C0 6 0 6 -0.0625 2.9375 C-0.041875 1.968125 -0.02125 0.99875 0 0 Z " fill="#C0C0C0" transform="translate(973,584)"/>
<path d="M0 0 C1.875 0.25 1.875 0.25 4 1 C5.25 3.0625 5.25 3.0625 6 5 C4.75 6.5625 4.75 6.5625 3 8 C0.9375 7.875 0.9375 7.875 -1 7 C-1.66 6.01 -2.32 5.02 -3 4 C-2.01 2.68 -1.02 1.36 0 0 Z " fill="#C3C3C3" transform="translate(865,337)"/>
<path d="M0 0 C2.125 0.375 2.125 0.375 4 1 C4.625 3.375 4.625 3.375 5 6 C4.34 6.66 3.68 7.32 3 8 C0.375 7.625 0.375 7.625 -2 7 C-2.125 4.625 -2.125 4.625 -2 2 C-1.34 1.34 -0.68 0.68 0 0 Z " fill="#000000" transform="translate(683,161)"/>
<path d="M0 0 C1.32 0.66 2.64 1.32 4 2 C4 3.32 4 4.64 4 6 C3.34 6.66 2.68 7.32 2 8 C0 7.875 0 7.875 -2 7 C-3.25 4.9375 -3.25 4.9375 -4 3 C-2.68 2.01 -1.36 1.02 0 0 Z " fill="#C1C1C1" transform="translate(846,884)"/>
<path d="M0 0 C1.32 0.99 2.64 1.98 4 3 C3.75 4.875 3.75 4.875 3 7 C0.9375 8.25 0.9375 8.25 -1 9 C-2.5 7.6875 -2.5 7.6875 -4 6 C-4 5.01 -4 4.02 -4 3 C-2 1.3125 -2 1.3125 0 0 Z " fill="#C1C1C1" transform="translate(874,344)"/>
<path d="M0 0 C1.65 0.99 3.3 1.98 5 3 C4.75 4.875 4.75 4.875 4 7 C1.9375 8.25 1.9375 8.25 0 9 C-0.99 8.01 -1.98 7.02 -3 6 C-1.125 1.125 -1.125 1.125 0 0 Z " fill="#C4C4C4" transform="translate(858,329)"/>
<path d="M0 0 C1.9375 0.75 1.9375 0.75 4 2 C4.75 4.125 4.75 4.125 5 6 C3.68 6.99 2.36 7.98 1 9 C-0.32 8.01 -1.64 7.02 -3 6 C-1.125 1.125 -1.125 1.125 0 0 Z " fill="#C2C2C2" transform="translate(850,322)"/>
<path d="M0 0 C1.98 0.99 3.96 1.98 6 3 C4.63016497 6.16115776 4.0109362 6.9927092 1 9 C-0.32 8.01 -1.64 7.02 -3 6 C-1.125 1.125 -1.125 1.125 0 0 Z " fill="#C6C6C6" transform="translate(825,302)"/>
<path d="M0 0 C1.65 0.99 3.3 1.98 5 3 C4.34 4.98 3.68 6.96 3 9 C0.5625 8.1875 0.5625 8.1875 -2 7 C-2.33 6.01 -2.66 5.02 -3 4 C-1.5625 1.8125 -1.5625 1.8125 0 0 Z " fill="#C2C2C2" transform="translate(419,923)"/>
<path d="M0 0 C1.98 0.66 3.96 1.32 6 2 C5.49396008 4.16874252 5.00016187 5.99967627 4 8 C2.35 7.67 0.7 7.34 -1 7 C-1.625 5.1875 -1.625 5.1875 -2 3 C-1.34 2.01 -0.68 1.02 0 0 Z " fill="#C4C4C4" transform="translate(409,918)"/>
<path d="M0 0 C1.32 0.66 2.64 1.32 4 2 C4 3.32 4 4.64 4 6 C2 7.75 2 7.75 0 9 C-1.5625 7.75 -1.5625 7.75 -3 6 C-2.72963853 3.02602384 -2.14553974 2.14553974 0 0 Z " fill="#C3C3C3" transform="translate(869,862)"/>
<path d="M0 0 C1.65 0.99 3.3 1.98 5 3 C4.34 4.65 3.68 6.3 3 8 C0 8 0 8 -3 6 C-2.42655063 3.13275314 -2.1385485 2.1385485 0 0 Z " fill="#C2C2C2" transform="translate(897,830)"/>
<path d="M0 0 C2.97 0.495 2.97 0.495 6 1 C5.625 3.9375 5.625 3.9375 5 7 C4.01 7.495 4.01 7.495 3 8 C0.375 7.0625 0.375 7.0625 -2 6 C-1.34 4.02 -0.68 2.04 0 0 Z " fill="#C1C1C1" transform="translate(956,719)"/>
<path d="M0 0 C2.16874252 0.50603992 3.99967627 0.99983813 6 2 C5.34 3.65 4.68 5.3 4 7 C0 7 0 7 -1.75 5.5 C-2.1625 5.005 -2.575 4.51 -3 4 C-2.01 2.68 -1.02 1.36 0 0 Z " fill="#C2C2C2" transform="translate(287,407)"/>
<path d="M0 0 C2.46800047 1.15173355 4.04783565 2.04783565 6 4 C4.35 5.65 2.7 7.3 1 9 C-0.32 8.01 -1.64 7.02 -3 6 C-1.125 1.125 -1.125 1.125 0 0 Z " fill="#C2C2C2" transform="translate(305,380)"/>
<path d="M0 0 C1.65 1.65 3.3 3.3 5 5 C3.71034824 6.37562854 2.37310707 7.70766393 1 9 C0.34 9 -0.32 9 -1 9 C-2.6875 7.1875 -2.6875 7.1875 -4 5 C-3 2 -3 2 0 0 Z " fill="#C3C3C3" transform="translate(888,360)"/>
<path d="M0 0 C1.65 0.99 3.3 1.98 5 3 C4.6875 4.875 4.6875 4.875 4 7 C3.01 7.66 2.02 8.32 1 9 C-0.32 8.01 -1.64 7.02 -3 6 C-1.125 1.125 -1.125 1.125 0 0 Z " fill="#C1C1C1" transform="translate(842,315)"/>
<path d="M0 0 C0.33 1.65 0.66 3.3 1 5 C-2 7 -2 7 -5 7 C-5.66 5.02 -6.32 3.04 -7 1 C-3.375 -1.125 -3.375 -1.125 0 0 Z " fill="#BFBFBF" transform="translate(428,277)"/>
<path d="M0 0 C0.66 1.98 1.32 3.96 2 6 C0.02 6.66 -1.96 7.32 -4 8 C-6 5 -6 5 -5.75 2.875 C-4.52320096 -0.19199761 -3.19812962 0 0 0 Z " fill="#C2C2C2" transform="translate(456,262)"/>
<path d="M0 0 C1.4540625 0.0309375 1.4540625 0.0309375 2.9375 0.0625 C2.9375 2.3725 2.9375 4.6825 2.9375 7.0625 C0.9575 7.0625 -1.0225 7.0625 -3.0625 7.0625 C-3.44383299 5.0710944 -3.77575582 3.06970923 -4.0625 1.0625 C-3.0625 0.0625 -3.0625 0.0625 0 0 Z " fill="#C0C0C0" transform="translate(624.0625,972.9375)"/>
<path d="M0 0 C1.98 0 3.96 0 6 0 C6 2.31 6 4.62 6 7 C3.69 6.67 1.38 6.34 -1 6 C-0.67 4.02 -0.34 2.04 0 0 Z " fill="#C1C1C1" transform="translate(568,972)"/>
<path d="M0 0 C2.31 0.66 4.62 1.32 7 2 C6.34 3.98 5.68 5.96 5 8 C3.02 7.34 1.04 6.68 -1 6 C-0.67 4.02 -0.34 2.04 0 0 Z " fill="#C5C5C5" transform="translate(485,954)"/>
<path d="M0 0 C1.67542976 0.28604898 3.34385343 0.61781233 5 1 C5.33 1.99 5.66 2.98 6 4 C4.5625 6.1875 4.5625 6.1875 3 8 C0.525 7.01 0.525 7.01 -2 6 C-1.125 1.125 -1.125 1.125 0 0 Z " fill="#C1C1C1" transform="translate(456,943)"/>
<path d="M0 0 C1.98 0.66 3.96 1.32 6 2 C5.67 3.65 5.34 5.3 5 7 C3.1875 7.6875 3.1875 7.6875 1 8 C-0.75 6.5625 -0.75 6.5625 -2 5 C-1.34 3.35 -0.68 1.7 0 0 Z " fill="#C3C3C3" transform="translate(446,938)"/>
<path d="M0 0 C0.66 1.98 1.32 3.96 2 6 C0.02 6.66 -1.96 7.32 -4 8 C-6 5 -6 5 -6 2 C-3 0 -3 0 0 0 Z " fill="#C1C1C1" transform="translate(797,921)"/>
<path d="M0 0 C1.32 1.32 2.64 2.64 4 4 C3 7 3 7 0.9375 8.1875 C0.298125 8.455625 -0.34125 8.72375 -1 9 C-1.99 7.68 -2.98 6.36 -4 5 C-2.25 1.125 -2.25 1.125 0 0 Z " fill="#C3C3C3" transform="translate(804,915)"/>
<path d="M0 0 C0.66 1.65 1.32 3.3 2 5 C-1.75 8 -1.75 8 -4 8 C-6 5 -6 5 -5.75 2.875 C-4.52320096 -0.19199761 -3.19812962 0 0 0 Z " fill="#C1C1C1" transform="translate(815,910)"/>
<path d="M0 0 C1.65 0.99 3.3 1.98 5 3 C4.34 4.65 3.68 6.3 3 8 C0 8 0 8 -3 6 C-1.125 1.125 -1.125 1.125 0 0 Z " fill="#C1C1C1" transform="translate(392,906)"/>
<path d="M0 0 C4.875 1.75 4.875 1.75 6 4 C5.01 5.32 4.02 6.64 3 8 C1.125 7.6875 1.125 7.6875 -1 7 C-1.66 6.01 -2.32 5.02 -3 4 C-2.01 2.68 -1.02 1.36 0 0 Z " fill="#C1C1C1" transform="translate(383,900)"/>
<path d="M0 0 C2.47598865 1.19805902 2.96367818 2.42179364 3.9375 4.9375 C2.125 6.5 2.125 6.5 -0.0625 7.9375 C-3.0625 6.9375 -3.0625 6.9375 -4.25 4.875 C-4.6521875 3.9159375 -4.6521875 3.9159375 -5.0625 2.9375 C-2.64829882 -0.08025148 -2.64829882 -0.08025148 0 0 Z " fill="#C1C1C1" transform="translate(839.0625,891.0625)"/>
<path d="M0 0 C1.9375 0.875 1.9375 0.875 3.9375 3.875 C2.6175 5.195 1.2975 6.515 -0.0625 7.875 C-2 7.0625 -2 7.0625 -4.0625 5.875 C-4.3925 4.885 -4.7225 3.895 -5.0625 2.875 C-2.63475434 -0.15968208 -2.63475434 -0.15968208 0 0 Z " fill="#C0C0C0" transform="translate(863.0625,870.125)"/>
<path d="M0 0 C2.125 0.375 2.125 0.375 4 1 C4.6875 2.8125 4.6875 2.8125 5 5 C3.5625 6.75 3.5625 6.75 2 8 C0.68 7.34 -0.64 6.68 -2 6 C-2 2 -2 2 0 0 Z " fill="#C1C1C1" transform="translate(343,866)"/>
<path d="M0 0 C1.32 0.66 2.64 1.32 4 2 C4 3.32 4 4.64 4 6 C3.34 6.66 2.68 7.32 2 8 C-0.125 7.625 -0.125 7.625 -2 7 C-2.6875 5.1875 -2.6875 5.1875 -3 3 C-1.5625 1.25 -1.5625 1.25 0 0 Z " fill="#C1C1C1" transform="translate(336,858)"/>
<path d="M0 0 C1.32 0.99 2.64 1.98 4 3 C3.6875 4.875 3.6875 4.875 3 7 C2.01 7.66 1.02 8.32 0 9 C-1.32 8.01 -2.64 7.02 -4 6 C-2.84826645 3.53199953 -1.95216435 1.95216435 0 0 Z " fill="#C1C1C1" transform="translate(877,854)"/>
<path d="M0 0 C1.9375 0.25 1.9375 0.25 4 1 C4.66 1.99 5.32 2.98 6 4 C4.35 5.32 2.7 6.64 1 8 C-0.32 7.01 -1.64 6.02 -3 5 C-1.125 1.125 -1.125 1.125 0 0 Z " fill="#C1C1C1" transform="translate(883,847)"/>
<path d="M0 0 C1.9375 0.75 1.9375 0.75 4 2 C4.75 4.125 4.75 4.125 5 6 C2 8 2 8 -0.1875 7.625 C-0.785625 7.41875 -1.38375 7.2125 -2 7 C-2.6875 5.1875 -2.6875 5.1875 -3 3 C-1.5625 1.25 -1.5625 1.25 0 0 Z " fill="#C4C4C4" transform="translate(315,834)"/>
<path d="M0 0 C2.475 0.99 2.475 0.99 5 2 C5 5 5 5 3 8 C-1.875 6.25 -1.875 6.25 -3 4 C-2.01 2.68 -1.02 1.36 0 0 Z " fill="#BFBFBF" transform="translate(903,822)"/>
<path d="M0 0 C1.32 1.32 2.64 2.64 4 4 C3 7 3 7 0.9375 8.1875 C0.298125 8.455625 -0.34125 8.72375 -1 9 C-1.99 7.68 -2.98 6.36 -4 5 C-2.25 1.125 -2.25 1.125 0 0 Z " fill="#BFBFBF" transform="translate(303,817)"/>
<path d="M0 0 C4.875 1.75 4.875 1.75 6 4 C5.01 5.32 4.02 6.64 3 8 C0.83125748 7.49396008 -0.99967627 7.00016187 -3 6 C-2 4 -1 2 0 0 Z " fill="#C1C1C1" transform="translate(909,813)"/>
<path d="M0 0 C0.66 1.65 1.32 3.3 2 5 C-1.75 8 -1.75 8 -4 8 C-6 5 -6 5 -5.75 2.875 C-4.52320096 -0.19199761 -3.19812962 0 0 0 Z " fill="#C0C0C0" transform="translate(299,809)"/>
<path d="M0 0 C2.51033417 1.1336993 2.96441202 2.36118938 3.9375 4.875 C2.125 6.4375 2.125 6.4375 -0.0625 7.875 C-1.0525 7.545 -2.0425 7.215 -3.0625 6.875 C-4.25 4.3125 -4.25 4.3125 -5.0625 1.875 C-2.0625 -0.125 -2.0625 -0.125 0 0 Z " fill="#C2C2C2" transform="translate(286.0625,791.125)"/>
<path d="M0 0 C1.98 0.66 3.96 1.32 6 2 C5.34 3.98 4.68 5.96 4 8 C2.35 7.67 0.7 7.34 -1 7 C-1.625 5.1875 -1.625 5.1875 -2 3 C-1.34 2.01 -0.68 1.02 0 0 Z " fill="#BFBFBF" transform="translate(931,777)"/>
<path d="M0 0 C2 3 2 3 1.625 5.1875 C1.41875 5.785625 1.2125 6.38375 1 7 C-0.65 7.33 -2.3 7.66 -4 8 C-4.66 6.02 -5.32 4.04 -6 2 C-2.25 0 -2.25 0 0 0 Z " fill="#C1C1C1" transform="translate(277,772)"/>
<path d="M0 0 C2.5 0.3125 2.5 0.3125 5 1 C5.33 1.66 5.66 2.32 6 3 C5.0625 5.625 5.0625 5.625 4 8 C2.02 7.34 0.04 6.68 -2 6 C-1.125 1.125 -1.125 1.125 0 0 Z " fill="#C3C3C3" transform="translate(949,739)"/>
<path d="M0 0 C0.33 1.65 0.66 3.3 1 5 C-1.31 5.33 -3.62 5.66 -6 6 C-6.33 4.02 -6.66 2.04 -7 0 C-4.3333581 -1.33332095 -2.83319697 -0.67102033 0 0 Z " fill="#C0C0C0" transform="translate(254,715)"/>
<path d="M0 0 C2.1385485 2.1385485 2.42655063 3.13275314 3 6 C0.35261084 7.4606285 -0.89448334 8 -4 8 C-4.33 6.02 -4.66 4.04 -5 2 C-3.35 1.34 -1.7 0.68 0 0 Z " fill="#C3C3C3" transform="translate(249,703)"/>
<path d="M0 0 C2.97 0.495 2.97 0.495 6 1 C6 2.98 6 4.96 6 7 C2.86650268 8.04449911 2.01031744 7.93423645 -1 7 C-0.67 4.69 -0.34 2.38 0 0 Z " fill="#C2C2C2" transform="translate(964,688)"/>
<path d="M0 0 C2.31 0.66 4.62 1.32 7 2 C6.34 3.98 5.68 5.96 5 8 C2.03 7.505 2.03 7.505 -1 7 C-0.67 4.69 -0.34 2.38 0 0 Z " fill="#C4C4C4" transform="translate(241,514)"/>
<path d="M0 0 C0.66 1.98 1.32 3.96 2 6 C0.02 6.66 -1.96 7.32 -4 8 C-4.66 6.02 -5.32 4.04 -6 2 C-3 0 -3 0 0 0 Z " fill="#C0C0C0" transform="translate(947,450)"/>
<path d="M0 0 C1.65 0.33 3.3 0.66 5 1 C5.625 2.8125 5.625 2.8125 6 5 C5.01 6.485 5.01 6.485 4 8 C2.02 7.34 0.04 6.68 -2 6 C-1.34 4.02 -0.68 2.04 0 0 Z " fill="#BFBFBF" transform="translate(281,416)"/>
<path d="M0 0 C0.99 0.33 1.98 0.66 3 1 C3.33 2.65 3.66 4.3 4 6 C1 8 1 8 -2 8 C-2.66 6.35 -3.32 4.7 -4 3 C-2.1875 1.4375 -2.1875 1.4375 0 0 Z " fill="#C0C0C0" transform="translate(925,412)"/>
<path d="M0 0 C1.9375 0.75 1.9375 0.75 4 2 C4.75 4.125 4.75 4.125 5 6 C2 8 2 8 -0.1875 7.625 C-0.785625 7.41875 -1.38375 7.2125 -2 7 C-2.33 5.35 -2.66 3.7 -3 2 C-2.01 1.34 -1.02 0.68 0 0 Z " fill="#C1C1C1" transform="translate(919,403)"/>
<path d="M0 0 C1.32 1.32 2.64 2.64 4 4 C3 7 3 7 0.9375 8.1875 C0.298125 8.455625 -0.34125 8.72375 -1 9 C-1.99 7.68 -2.98 6.36 -4 5 C-2.25 1.125 -2.25 1.125 0 0 Z " fill="#C0C0C0" transform="translate(908,385)"/>
<path d="M0 0 C1.9375 0.8125 1.9375 0.8125 4 2 C4.33 2.99 4.66 3.98 5 5 C3.1875 6.5625 3.1875 6.5625 1 8 C-2 7 -2 7 -3.1875 4.9375 C-3.5896875 3.9784375 -3.5896875 3.9784375 -4 3 C-2.68 2.01 -1.36 1.02 0 0 Z " fill="#C0C0C0" transform="translate(901,377)"/>
<path d="M0 0 C1.32 1.32 2.64 2.64 4 4 C3.1875 5.9375 3.1875 5.9375 2 8 C1.01 8.33 0.02 8.66 -1 9 C-2.5625 7.1875 -2.5625 7.1875 -4 5 C-3 2 -3 2 0 0 Z " fill="#C0C0C0" transform="translate(895,368)"/>
<path d="M0 0 C1.65 1.65 3.3 3.3 5 5 C4.01 6.32 3.02 7.64 2 9 C0 8 -2 7 -4 6 C-2.84826645 3.53199953 -1.95216435 1.95216435 0 0 Z " fill="#C1C1C1" transform="translate(319,363)"/>
<path d="M0 0 C1.65 1.65 3.3 3.3 5 5 C3.35 6.32 1.7 7.64 0 9 C-1.32 7.68 -2.64 6.36 -4 5 C-3 2 -3 2 0 0 Z " fill="#C2C2C2" transform="translate(881,352)"/>
<path d="M0 0 C1.32 0.99 2.64 1.98 4 3 C3.75 4.875 3.75 4.875 3 7 C0.9375 8.25 0.9375 8.25 -1 9 C-2.5625 7.1875 -2.5625 7.1875 -4 5 C-3 2 -3 2 0 0 Z " fill="#C1C1C1" transform="translate(364,318)"/>
<path d="M0 0 C1.7074998 1.28062485 3.37373596 2.61767557 5 4 C5 4.66 5 5.32 5 6 C1.53846154 9 1.53846154 9 -1 9 C-2.625 6.5 -2.625 6.5 -4 4 C-2.68 2.68 -1.36 1.36 0 0 Z " fill="#BFBFBF" transform="translate(372,311)"/>
<path d="M0 0 C1.32 0.66 2.64 1.32 4 2 C4 3.32 4 4.64 4 6 C3.34 6.66 2.68 7.32 2 8 C-0.125 7.625 -0.125 7.625 -2 7 C-2.33 5.35 -2.66 3.7 -3 2 C-2.01 1.34 -1.02 0.68 0 0 Z " fill="#C4C4C4" transform="translate(380,305)"/>
<path d="M0 0 C2 3 2 3 2 6 C0.02 6.66 -1.96 7.32 -4 8 C-6 5 -6 5 -6 2 C-3 0 -3 0 0 0 Z " fill="#C0C0C0" transform="translate(409,287)"/>
<path d="M0 0 C0.66 1.98 1.32 3.96 2 6 C-1 8 -1 8 -3.1875 7.625 C-3.785625 7.41875 -4.38375 7.2125 -5 7 C-5.33 5.68 -5.66 4.36 -6 3 C-2.25 0 -2.25 0 0 0 Z " fill="#C4C4C4" transform="translate(418,281)"/>
<path d="M0 0 C1.98 0.66 3.96 1.32 6 2 C5.1875 4.4375 5.1875 4.4375 4 7 C3.01 7.33 2.02 7.66 1 8 C0.01 7.34 -0.98 6.68 -2 6 C-1.125 1.125 -1.125 1.125 0 0 Z " fill="#BFBFBF" transform="translate(780,274)"/>
<path d="M0 0 C1.98 0.66 3.96 1.32 6 2 C5.34 3.98 4.68 5.96 4 8 C2.35 7.67 0.7 7.34 -1 7 C-2 4 -2 4 -1.0625 1.8125 C-0.5365625 0.9153125 -0.5365625 0.9153125 0 0 Z " fill="#C3C3C3" transform="translate(751,260)"/>
<path d="M0 0 C0.33 1.98 0.66 3.96 1 6 C-2 8 -2 8 -5 8 C-5.66 6.02 -6.32 4.04 -7 2 C-2.25 0 -2.25 0 0 0 Z " fill="#C3C3C3" transform="translate(486,250)"/>
<path d="M0 0 C0.625 2.5625 0.625 2.5625 1 5 C-1.31 5.66 -3.62 6.32 -6 7 C-6.33 4.69 -6.66 2.38 -7 0 C-2.25 -1.125 -2.25 -1.125 0 0 Z " fill="#C2C2C2" transform="translate(517,242)"/>
<path d="M0 0 C1.98 0 3.96 0 6 0 C6 2.31 6 4.62 6 7 C3.69 6.67 1.38 6.34 -1 6 C-0.67 4.02 -0.34 2.04 0 0 Z " fill="#C0C0C0" transform="translate(627,231)"/>
<path d="M0 0 C0.33 1.98 0.66 3.96 1 6 C-1.31 6.33 -3.62 6.66 -6 7 C-6.33 5.02 -6.66 3.04 -7 1 C-4 0 -4 0 0 0 Z " fill="#C2C2C2" transform="translate(700,962)"/>
<path d="M0 0 C1.98 0.66 3.96 1.32 6 2 C5.34 3.98 4.68 5.96 4 8 C2.02 7.34 0.04 6.68 -2 6 C-1.34 4.02 -0.68 2.04 0 0 Z " fill="#C0C0C0" transform="translate(506,960)"/>
<path d="M0 0 C0.33 1.98 0.66 3.96 1 6 C-0.98 6.66 -2.96 7.32 -5 8 C-5.33 5.69 -5.66 3.38 -6 1 C-3 0 -3 0 0 0 Z " fill="#C2C2C2" transform="translate(710,959)"/>
<path d="M0 0 C1.98 0.66 3.96 1.32 6 2 C5.34 3.98 4.68 5.96 4 8 C1.03 7.505 1.03 7.505 -2 7 C-1.125 1.125 -1.125 1.125 0 0 Z " fill="#C1C1C1" transform="translate(496,957)"/>
<path d="M0 0 C2.5 0.3125 2.5 0.3125 5 1 C5.33 1.66 5.66 2.32 6 3 C5.0625 5.625 5.0625 5.625 4 8 C2.02 7.34 0.04 6.68 -2 6 C-1.125 1.125 -1.125 1.125 0 0 Z " fill="#C1C1C1" transform="translate(466,947)"/>
<path d="M0 0 C0.598125 0.20625 1.19625 0.4125 1.8125 0.625 C2.1425 2.275 2.4725 3.925 2.8125 5.625 C0.8325 6.285 -1.1475 6.945 -3.1875 7.625 C-3.8475 5.645 -4.5075 3.665 -5.1875 1.625 C-2.1875 -0.375 -2.1875 -0.375 0 0 Z " fill="#BFBFBF" transform="translate(758.1875,941.375)"/>
<path d="M0 0 C0.66 1.98 1.32 3.96 2 6 C0.02 6.66 -1.96 7.32 -4 8 C-6 5 -6 5 -6 2 C-2.25 0 -2.25 0 0 0 Z " fill="#BFBFBF" transform="translate(769,936)"/>
<path d="M0 0 C1.65 0.33 3.3 0.66 5 1 C5.625 2.8125 5.625 2.8125 6 5 C5.01 6.485 5.01 6.485 4 8 C-0.875 6.25 -0.875 6.25 -2 4 C-1.0625 1.875 -1.0625 1.875 0 0 Z " fill="#C1C1C1" transform="translate(427,929)"/>
<path d="M0 0 C1.32 1.32 2.64 2.64 4 4 C3.67 4.99 3.34 5.98 3 7 C1.35 7.33 -0.3 7.66 -2 8 C-4 5 -4 5 -4 2 C-2.68 1.34 -1.36 0.68 0 0 Z " fill="#C2C2C2" transform="translate(786,926)"/>
<path d="M0 0 C1.65 0.99 3.3 1.98 5 3 C4.34 4.65 3.68 6.3 3 8 C0 8 0 8 -3 6 C-1.125 1.125 -1.125 1.125 0 0 Z " fill="#C1C1C1" transform="translate(401,912)"/>
<path d="M0 0 C1.32 0.99 2.64 1.98 4 3 C3.67 4.32 3.34 5.64 3 7 C1.35 7.33 -0.3 7.66 -2 8 C-2.66 6.35 -3.32 4.7 -4 3 C-2.68 2.01 -1.36 1.02 0 0 Z " fill="#C0C0C0" transform="translate(830,897)"/>
<path d="M0 0 C1.32 0.66 2.64 1.32 4 2 C4 3.32 4 4.64 4 6 C2.02 6.99 2.02 6.99 0 8 C-0.99 7.34 -1.98 6.68 -3 6 C-2.42655063 3.13275314 -2.1385485 2.1385485 0 0 Z " fill="#C1C1C1" transform="translate(367,887)"/>
<path d="M0 0 C1.65 0.99 3.3 1.98 5 3 C4.25 4.9375 4.25 4.9375 3 7 C1 7.875 1 7.875 -1 8 C-1.66 7.34 -2.32 6.68 -3 6 C-2.63318342 3.06546739 -2.13562754 2.13562754 0 0 Z " fill="#BFBFBF" transform="translate(359,880)"/>
<path d="M0 0 C1.9375 0.25 1.9375 0.25 4 1 C4.66 1.99 5.32 2.98 6 4 C4.35 5.32 2.7 6.64 1 8 C-0.32 7.01 -1.64 6.02 -3 5 C-1.125 1.125 -1.125 1.125 0 0 Z " fill="#C1C1C1" transform="translate(890,839)"/>
<path d="M0 0 C0.99 0 1.98 0 3 0 C5 3 5 3 5 6 C3.35 6.66 1.7 7.32 0 8 C-0.99 7.01 -1.98 6.02 -3 5 C-1.125 1.125 -1.125 1.125 0 0 Z " fill="#C1C1C1" transform="translate(308,826)"/>
<path d="M0 0 C1.98 0.99 3.96 1.98 6 3 C5.01 4.98 4.02 6.96 3 9 C1.02 8.01 -0.96 7.02 -3 6 C-2.01 4.02 -1.02 2.04 0 0 Z " fill="#C2C2C2" transform="translate(915,804)"/>
<path d="M0 0 C0.66 1.65 1.32 3.3 2 5 C-1.75 8 -1.75 8 -4 8 C-4.66 6.02 -5.32 4.04 -6 2 C-3 0 -3 0 0 0 Z " fill="#C2C2C2" transform="translate(293,800)"/>
<path d="M0 0 C1.65 0.33 3.3 0.66 5 1 C5.625 2.8125 5.625 2.8125 6 5 C5.01 6.485 5.01 6.485 4 8 C1.525 7.01 1.525 7.01 -1 6 C-1 2 -1 2 0 0 Z " fill="#C1C1C1" transform="translate(920,796)"/>
<path d="M0 0 C1.98 0.99 3.96 1.98 6 3 C5.01 4.98 4.02 6.96 3 9 C1.35 8.01 -0.3 7.02 -2 6 C-1.49396008 3.83125748 -1.00016187 2.00032373 0 0 Z " fill="#C2C2C2" transform="translate(926,786)"/>
<path d="M0 0 C0.99 1.32 1.98 2.64 3 4 C2.1875 5.9375 2.1875 5.9375 1 8 C0.01 8.33 -0.98 8.66 -2 9 C-3.5625 7.1875 -3.5625 7.1875 -5 5 C-4 2 -4 2 -1.9375 0.8125 C-1.298125 0.544375 -0.65875 0.27625 0 0 Z " fill="#C3C3C3" transform="translate(281,781)"/>
<path d="M0 0 C0.33 1.98 0.66 3.96 1 6 C-0.65 6.66 -2.3 7.32 -4 8 C-4.99 6.02 -5.98 4.04 -7 2 C-4 0 -4 0 0 0 Z " fill="#C3C3C3" transform="translate(273,763)"/>
<path d="M0 0 C0.66 1.98 1.32 3.96 2 6 C0.02 6.66 -1.96 7.32 -4 8 C-6 5 -6 5 -6 2 C-2.25 0 -2.25 0 0 0 Z " fill="#C1C1C1" transform="translate(264,743)"/>
<path d="M0 0 C0.33 1.65 0.66 3.3 1 5 C-0.98 5.33 -2.96 5.66 -5 6 C-7 3 -7 3 -7 0 C-4.3333581 -1.33332095 -2.83319697 -0.67102033 0 0 Z " fill="#C2C2C2" transform="translate(261,735)"/>
<path d="M0 0 C0.33 1.98 0.66 3.96 1 6 C-0.98 6.33 -2.96 6.66 -5 7 C-5.66 5.02 -6.32 3.04 -7 1 C-4 0 -4 0 0 0 Z " fill="#C1C1C1" transform="translate(257,724)"/>
<path d="M0 0 C2.97 0.495 2.97 0.495 6 1 C5.67 2.98 5.34 4.96 5 7 C2.69 6.67 0.38 6.34 -2 6 C-1.34 4.02 -0.68 2.04 0 0 Z " fill="#C2C2C2" transform="translate(962,699)"/>
<path d="M0 0 C0.33 1.98 0.66 3.96 1 6 C-0.98 6.66 -2.96 7.32 -5 8 C-5.66 5.69 -6.32 3.38 -7 1 C-2.25 0 -2.25 0 0 0 Z " fill="#C3C3C3" transform="translate(248,693)"/>
<path d="M0 0 C0 2.31 0 4.62 0 7 C-1.98 7 -3.96 7 -6 7 C-6.33 5.02 -6.66 3.04 -7 1 C-4.50935112 0.31292445 -2.62113708 0 0 0 Z " fill="#C1C1C1" transform="translate(239,641)"/>
<path d="M0 0 C2.31 0.33 4.62 0.66 7 1 C6.67 2.98 6.34 4.96 6 7 C4.02 7 2.04 7 0 7 C0 4.69 0 2.38 0 0 Z " fill="#C3C3C3" transform="translate(972,636)"/>
<path d="M0 0 C1.98 0 3.96 0 6 0 C6 2.31 6 4.62 6 7 C4.02 7 2.04 7 0 7 C0 4.69 0 2.38 0 0 Z " fill="#C0C0C0" transform="translate(231,620)"/>
<path d="M0 0 C2.97 0.495 2.97 0.495 6 1 C6 2.98 6 4.96 6 7 C3.69 7 1.38 7 -1 7 C-0.67 4.69 -0.34 2.38 0 0 Z " fill="#C2C2C2" transform="translate(974,615)"/>
<path d="M0 0 C2.31 0.33 4.62 0.66 7 1 C6.67 2.98 6.34 4.96 6 7 C4.33388095 7.042721 2.66617115 7.04063832 1 7 C0 6 0 6 -0.0625 2.9375 C-0.041875 1.968125 -0.02125 0.99875 0 0 Z " fill="#BFBFBF" transform="translate(232,567)"/>
<path d="M0 0 C0 1.98 0 3.96 0 6 C-1.98 6 -3.96 6 -6 6 C-6.33 4.02 -6.66 2.04 -7 0 C-3.86650268 -1.04449911 -3.01031744 -0.93423645 0 0 Z " fill="#C1C1C1" transform="translate(977,553)"/>
<path d="M0 0 C0.33 2.31 0.66 4.62 1 7 C-0.98 7.33 -2.96 7.66 -5 8 C-5.33 6.02 -5.66 4.04 -6 2 C-2.25 0 -2.25 0 0 0 Z " fill="#C2C2C2" transform="translate(968,510)"/>
<path d="M0 0 C0.33 1.65 0.66 3.3 1 5 C-1.31 5.33 -3.62 5.66 -6 6 C-6.33 4.02 -6.66 2.04 -7 0 C-3.86650268 -1.04449911 -3.01031744 -0.93423645 0 0 Z " fill="#C2C2C2" transform="translate(966,501)"/>
<path d="M0 0 C0.33 1.65 0.66 3.3 1 5 C-1.31 5.33 -3.62 5.66 -6 6 C-6.33 4.02 -6.66 2.04 -7 0 C-3.86650268 -1.04449911 -3.01031744 -0.93423645 0 0 Z " fill="#BFBFBF" transform="translate(963,491)"/>
<path d="M0 0 C2.97 0.495 2.97 0.495 6 1 C5.67 2.98 5.34 4.96 5 7 C2.69 6.67 0.38 6.34 -2 6 C-1.34 4.02 -0.68 2.04 0 0 Z " fill="#C0C0C0" transform="translate(254,474)"/>
<path d="M0 0 C1.67542976 0.28604898 3.34385343 0.61781233 5 1 C5.33 1.99 5.66 2.98 6 4 C5.01 5.485 5.01 5.485 4 7 C1.03 6.505 1.03 6.505 -2 6 C-1.125 1.125 -1.125 1.125 0 0 Z " fill="#C2C2C2" transform="translate(258,464)"/>
<path d="M0 0 C0.598125 0.20625 1.19625 0.4125 1.8125 0.625 C2.1425 2.275 2.4725 3.925 2.8125 5.625 C0.8325 6.285 -1.1475 6.945 -3.1875 7.625 C-3.8475 5.645 -4.5075 3.665 -5.1875 1.625 C-2.1875 -0.375 -2.1875 -0.375 0 0 Z " fill="#C1C1C1" transform="translate(950.1875,460.375)"/>
<path d="M0 0 C1.65 0.33 3.3 0.66 5 1 C6 4 6 4 5.0625 6.1875 C4.5365625 7.0846875 4.5365625 7.0846875 4 8 C2.02 7.34 0.04 6.68 -2 6 C-1.34 4.02 -0.68 2.04 0 0 Z " fill="#BFBFBF" transform="translate(262,454)"/>
<path d="M0 0 C1.5625 1.25 1.5625 1.25 3 3 C2.6875 5.1875 2.6875 5.1875 2 7 C0.35 7.33 -1.3 7.66 -3 8 C-3.66 6.02 -4.32 4.04 -5 2 C-3.35 1.34 -1.7 0.68 0 0 Z " fill="#C1C1C1" transform="translate(941,440)"/>
<path d="M0 0 C1.98 0.66 3.96 1.32 6 2 C5.34 3.98 4.68 5.96 4 8 C2.35 7.67 0.7 7.34 -1 7 C-2 4 -2 4 -1.0625 1.8125 C-0.5365625 0.9153125 -0.5365625 0.9153125 0 0 Z " fill="#BFBFBF" transform="translate(276,425)"/>
<path d="M0 0 C2.2477975 2.05233685 3.0022242 3.00667261 4 6 C1 8 1 8 -1.1875 7.625 C-1.785625 7.41875 -2.38375 7.2125 -3 7 C-3.33 5.35 -3.66 3.7 -4 2 C-2.68 1.34 -1.36 0.68 0 0 Z " fill="#C1C1C1" transform="translate(931,421)"/>
<path d="M0 0 C1.65 0.33 3.3 0.66 5 1 C5.625 2.8125 5.625 2.8125 6 5 C5.01 6.485 5.01 6.485 4 8 C-0.875 6.25 -0.875 6.25 -2 4 C-1.0625 1.875 -1.0625 1.875 0 0 Z " fill="#C0C0C0" transform="translate(292,398)"/>
<path d="M0 0 C2.475 0.99 2.475 0.99 5 2 C4.67 3.65 4.34 5.3 4 7 C2.68 7.33 1.36 7.66 0 8 C-0.99 6.68 -1.98 5.36 -3 4 C-2.01 2.68 -1.02 1.36 0 0 Z " fill="#C3C3C3" transform="translate(299,389)"/>
<path d="M0 0 C1.875 0.25 1.875 0.25 4 1 C5.25 3.0625 5.25 3.0625 6 5 C5.01 5.99 4.02 6.98 3 8 C0.525 7.01 0.525 7.01 -2 6 C-1.49396008 3.83125748 -1.00016187 2.00032373 0 0 Z " fill="#C1C1C1" transform="translate(311,372)"/>
<path d="M0 0 C1.65 1.65 3.3 3.3 5 5 C3.35 6.32 1.7 7.64 0 9 C-1.32 8.01 -2.64 7.02 -4 6 C-2.84826645 3.53199953 -1.95216435 1.95216435 0 0 Z " fill="#C2C2C2" transform="translate(326,355)"/>
<path d="M0 0 C1.9375 0.875 1.9375 0.875 3.9375 3.875 C2.9475 5.195 1.9575 6.515 0.9375 7.875 C-2.22365776 6.50516497 -3.0552092 5.8859362 -5.0625 2.875 C-2.63475434 -0.15968208 -2.63475434 -0.15968208 0 0 Z " fill="#C1C1C1" transform="translate(334.0625,348.125)"/>
<path d="M0 0 C1.32 0.99 2.64 1.98 4 3 C3.6875 4.875 3.6875 4.875 3 7 C2.01 7.66 1.02 8.32 0 9 C-1.32 7.68 -2.64 6.36 -4 5 C-3 2 -3 2 0 0 Z " fill="#BFBFBF" transform="translate(356,325)"/>
<path d="M0 0 C1.875 0.25 1.875 0.25 4 1 C5.25 3.0625 5.25 3.0625 6 5 C5.01 5.99 4.02 6.98 3 8 C0.525 7.01 0.525 7.01 -2 6 C-1.49396008 3.83125748 -1.00016187 2.00032373 0 0 Z " fill="#C1C1C1" transform="translate(833,309)"/>
<path d="M0 0 C0.598125 0.20625 1.19625 0.4125 1.8125 0.625 C2.1425 2.275 2.4725 3.925 2.8125 5.625 C1.1625 6.285 -0.4875 6.945 -2.1875 7.625 C-5.1875 3.875 -5.1875 3.875 -5.1875 1.625 C-2.1875 -0.375 -2.1875 -0.375 0 0 Z " fill="#C1C1C1" transform="translate(390.1875,299.375)"/>
<path d="M0 0 C2.475 0.99 2.475 0.99 5 2 C5 6 5 6 4 8 C2.35 7.67 0.7 7.34 -1 7 C-1.625 5.1875 -1.625 5.1875 -2 3 C-1.34 2.01 -0.68 1.02 0 0 Z " fill="#BFBFBF" transform="translate(816,296)"/>
<path d="M0 0 C0.33 1.32 0.66 2.64 1 4 C-1.475 5.485 -1.475 5.485 -4 7 C-5.5625 5.1875 -5.5625 5.1875 -7 3 C-6.67 2.01 -6.34 1.02 -6 0 C-3.50907189 -1.24546405 -2.58919267 -0.7767578 0 0 Z " fill="#C3C3C3" transform="translate(401,294)"/>
<path d="M0 0 C1.65 0.99 3.3 1.98 5 3 C4.34 4.65 3.68 6.3 3 8 C1.35 7.67 -0.3 7.34 -2 7 C-2.33 6.01 -2.66 5.02 -3 4 C-1.5625 1.8125 -1.5625 1.8125 0 0 Z " fill="#C0C0C0" transform="translate(808,290)"/>
<path d="M0 0 C1.65 0.33 3.3 0.66 5 1 C5.33 1.99 5.66 2.98 6 4 C4.68 5.32 3.36 6.64 2 8 C0.68 7.01 -0.64 6.02 -2 5 C-1.34 3.35 -0.68 1.7 0 0 Z " fill="#C2C2C2" transform="translate(798,285)"/>
<path d="M0 0 C2.475 0.99 2.475 0.99 5 2 C5 6 5 6 4 8 C2.35 7.67 0.7 7.34 -1 7 C-2 4 -2 4 -1.0625 1.8125 C-0.5365625 0.9153125 -0.5365625 0.9153125 0 0 Z " fill="#C1C1C1" transform="translate(789,279)"/>
<path d="M0 0 C1.98 0.66 3.96 1.32 6 2 C5.67 3.65 5.34 5.3 5 7 C2 8 2 8 -0.1875 7.0625 C-0.785625 6.711875 -1.38375 6.36125 -2 6 C-1.34 4.02 -0.68 2.04 0 0 Z " fill="#C0C0C0" transform="translate(770,269)"/>
<path d="M0 0 C0.66 1.98 1.32 3.96 2 6 C-1 8 -1 8 -4 8 C-4.66 6.02 -5.32 4.04 -6 2 C-2.25 0 -2.25 0 0 0 Z " fill="#C0C0C0" transform="translate(446,266)"/>
<path d="M0 0 C2.9375 0.375 2.9375 0.375 6 1 C6.33 1.66 6.66 2.32 7 3 C6.0625 5.125 6.0625 5.125 5 7 C2.03 6.505 2.03 6.505 -1 6 C-0.67 4.02 -0.34 2.04 0 0 Z " fill="#C1C1C1" transform="translate(760,265)"/>
<path d="M0 0 C1.98 0.66 3.96 1.32 6 2 C5.67 3.65 5.34 5.3 5 7 C4.01 7.33 3.02 7.66 2 8 C-0.1875 6.5625 -0.1875 6.5625 -2 5 C-1.34 3.35 -0.68 1.7 0 0 Z " fill="#C3C3C3" transform="translate(741,256)"/>
<path d="M0 0 C0.33 1.98 0.66 3.96 1 6 C-0.98 6.66 -2.96 7.32 -5 8 C-5.66 6.02 -6.32 4.04 -7 2 C-4.35261084 0.5393715 -3.10551666 0 0 0 Z " fill="#C1C1C1" transform="translate(476,254)"/>
<path d="M0 0 C2.97 0.495 2.97 0.495 6 1 C5.625 3.9375 5.625 3.9375 5 7 C4.01 7.495 4.01 7.495 3 8 C0.375 7.0625 0.375 7.0625 -2 6 C-1.34 4.02 -0.68 2.04 0 0 Z " fill="#BFBFBF" transform="translate(721,249)"/>
<path d="M0 0 C2.31 0.33 4.62 0.66 7 1 C6.34 2.98 5.68 4.96 5 7 C2.03 6.505 2.03 6.505 -1 6 C-0.67 4.02 -0.34 2.04 0 0 Z " fill="#BFBFBF" transform="translate(700,243)"/>
<path d="M0 0 C2.97 0.495 2.97 0.495 6 1 C5.67 3.31 5.34 5.62 5 8 C2.03 7.505 2.03 7.505 -1 7 C-0.67 4.69 -0.34 2.38 0 0 Z " fill="#C1C1C1" transform="translate(690,240)"/>
<path d="M0 0 C0.38133299 1.9914056 0.71325582 3.99279077 1 6 C0 7 0 7 -2.5 7.125 C-5 7 -5 7 -6 6 C-6.04063832 4.33382885 -6.042721 2.66611905 -6 1 C-3 0 -3 0 0 0 Z " fill="#C0C0C0" transform="translate(658,970)"/>
<path d="M0 0 C2.97 0.495 2.97 0.495 6 1 C6.042721 2.66611905 6.04063832 4.33382885 6 6 C5 7 5 7 1.9375 7.0625 C0.4834375 7.0315625 0.4834375 7.0315625 -1 7 C-0.67 4.69 -0.34 2.38 0 0 Z " fill="#BFBFBF" transform="translate(547,969)"/>
<path d="M0 0 C1.98 0 3.96 0 6 0 C6.33 1.98 6.66 3.96 7 6 C5.02 6.33 3.04 6.66 1 7 C0.67 4.69 0.34 2.38 0 0 Z " fill="#C1C1C1" transform="translate(673,967)"/>
<path d="M0 0 C2.97 0.495 2.97 0.495 6 1 C5.67 3.31 5.34 5.62 5 8 C2.03 7.505 2.03 7.505 -1 7 C-0.67 4.69 -0.34 2.38 0 0 Z " fill="#BFBFBF" transform="translate(526,965)"/>
<path d="M0 0 C2 2 2 2 2.125 4.625 C2.08375 5.40875 2.0425 6.1925 2 7 C0.02 7.33 -1.96 7.66 -4 8 C-4.33 5.69 -4.66 3.38 -5 1 C-2.625 0.375 -2.625 0.375 0 0 Z " fill="#C0C0C0" transform="translate(688,964)"/>
<path d="M0 0 C0.33 1.98 0.66 3.96 1 6 C-0.98 6.66 -2.96 7.32 -5 8 C-5.33 5.69 -5.66 3.38 -6 1 C-3 0 -3 0 0 0 Z " fill="#C0C0C0" transform="translate(720,956)"/>
<path d="M0 0 C2.31 0.33 4.62 0.66 7 1 C6.34 2.98 5.68 4.96 5 7 C2.03 6.505 2.03 6.505 -1 6 C-0.67 4.02 -0.34 2.04 0 0 Z " fill="#C3C3C3" transform="translate(475,951)"/>
<path d="M0 0 C0.33 1.98 0.66 3.96 1 6 C-0.65 6.66 -2.3 7.32 -4 8 C-6 5 -6 5 -6 1 C-3 0 -3 0 0 0 Z " fill="#C1C1C1" transform="translate(740,949)"/>
<path d="M0 0 C0.33 1.98 0.66 3.96 1 6 C-0.98 6.66 -2.96 7.32 -5 8 C-5.33 5.69 -5.66 3.38 -6 1 C-3 0 -3 0 0 0 Z " fill="#C1C1C1" transform="translate(750,945)"/>
<path d="M0 0 C2.5 0.3125 2.5 0.3125 5 1 C5.33 1.66 5.66 2.32 6 3 C4.5625 5.625 4.5625 5.625 3 8 C0.525 7.01 0.525 7.01 -2 6 C-1.125 1.125 -1.125 1.125 0 0 Z " fill="#C1C1C1" transform="translate(437,934)"/>
<path d="M0 0 C1.5625 1.25 1.5625 1.25 3 3 C2.6875 5.1875 2.6875 5.1875 2 7 C0.35 7.33 -1.3 7.66 -3 8 C-3.66 6.35 -4.32 4.7 -5 3 C-3.35 2.01 -1.7 1.02 0 0 Z " fill="#C0C0C0" transform="translate(777,931)"/>
<path d="M0 0 C2.475 0.99 2.475 0.99 5 2 C4.75 3.875 4.75 3.875 4 6 C1.9375 7.25 1.9375 7.25 0 8 C-0.99 7.01 -1.98 6.02 -3 5 C-1.125 1.125 -1.125 1.125 0 0 Z " fill="#C0C0C0" transform="translate(375,894)"/>
<path d="M0 0 C1.32 0.66 2.64 1.32 4 2 C4 3.32 4 4.64 4 6 C2.02 6.99 2.02 6.99 0 8 C-0.99 7.34 -1.98 6.68 -3 6 C-2.42655063 3.13275314 -2.1385485 2.1385485 0 0 Z " fill="#C1C1C1" transform="translate(351,873)"/>
<path d="M0 0 C1.65 1.65 3.3 3.3 5 5 C3.35 6.32 1.7 7.64 0 9 C-1.32 7.35 -2.64 5.7 -4 4 C-2.68 2.68 -1.36 1.36 0 0 Z " fill="#BFBFBF" transform="translate(329,850)"/>
<path d="M0 0 C1.65 1.65 3.3 3.3 5 5 C3.35 6.32 1.7 7.64 0 9 C-1.32 7.35 -2.64 5.7 -4 4 C-2.68 2.68 -1.36 1.36 0 0 Z " fill="#C0C0C0" transform="translate(322,842)"/>
<path d="M0 0 C2.5 0.3125 2.5 0.3125 5 1 C5.33 1.66 5.66 2.32 6 3 C4.5625 5.625 4.5625 5.625 3 8 C0.525 7.01 0.525 7.01 -2 6 C-1.125 1.125 -1.125 1.125 0 0 Z " fill="#C1C1C1" transform="translate(936,768)"/>
<path d="M0 0 C1.98 0.66 3.96 1.32 6 2 C5.67 3.65 5.34 5.3 5 7 C4.01 7.33 3.02 7.66 2 8 C-0.1875 6.5625 -0.1875 6.5625 -2 5 C-1.34 3.35 -0.68 1.7 0 0 Z " fill="#C1C1C1" transform="translate(940,758)"/>
<path d="M0 0 C0.66 1.98 1.32 3.96 2 6 C0.02 6.66 -1.96 7.32 -4 8 C-4.66 6.02 -5.32 4.04 -6 2 C-2.25 0 -2.25 0 0 0 Z " fill="#BFBFBF" transform="translate(268,753)"/>
<path d="M0 0 C2.9375 0.375 2.9375 0.375 6 1 C6.33 1.66 6.66 2.32 7 3 C6.0625 5.125 6.0625 5.125 5 7 C2.03 6.505 2.03 6.505 -1 6 C-0.67 4.02 -0.34 2.04 0 0 Z " fill="#C0C0C0" transform="translate(944,749)"/>
<path d="M0 0 C2.97 0.495 2.97 0.495 6 1 C5.67 3.31 5.34 5.62 5 8 C3.02 7.34 1.04 6.68 -1 6 C-0.67 4.02 -0.34 2.04 0 0 Z " fill="#C0C0C0" transform="translate(952,729)"/>
<path d="M0 0 C2.97 0.495 2.97 0.495 6 1 C5.67 2.98 5.34 4.96 5 7 C2.69 6.67 0.38 6.34 -2 6 C-1.34 4.02 -0.68 2.04 0 0 Z " fill="#C1C1C1" transform="translate(959,709)"/>
<path d="M0 0 C2.31 0.33 4.62 0.66 7 1 C6.67 2.98 6.34 4.96 6 7 C3.69 6.67 1.38 6.34 -1 6 C-0.67 4.02 -0.34 2.04 0 0 Z " fill="#C0C0C0" transform="translate(966,678)"/>
<path d="M0 0 C1.98 0 3.96 0 6 0 C7.04449911 3.13349732 6.93423645 3.98968256 6 7 C3.03 6.505 3.03 6.505 0 6 C0 4.02 0 2.04 0 0 Z " fill="#C2C2C2" transform="translate(968,668)"/>
<path d="M0 0 C1.98 0 3.96 0 6 0 C7.04449911 3.13349732 6.93423645 3.98968256 6 7 C3.03 6.505 3.03 6.505 0 6 C0 4.02 0 2.04 0 0 Z " fill="#C0C0C0" transform="translate(971,647)"/>
<path d="M0 0 C2.31 0 4.62 0 7 0 C7.042721 1.66611905 7.04063832 3.33382885 7 5 C6 6 6 6 2.9375 6.0625 C1.4834375 6.0315625 1.4834375 6.0315625 0 6 C0 4.02 0 2.04 0 0 Z " fill="#C1C1C1" transform="translate(231,578)"/>
<path d="M0 0 C2.00720923 0.28674418 4.0085944 0.61866701 6 1 C5.67 2.98 5.34 4.96 5 7 C3.02 7 1.04 7 -1 7 C-1.04254356 5.00045254 -1.04080783 2.99958364 -1 1 C-0.67 0.67 -0.34 0.34 0 0 Z " fill="#C1C1C1" transform="translate(234,556)"/>
<path d="M0 0 C1.66611905 -0.042721 3.33382885 -0.04063832 5 0 C6 1 6 1 6.0625 4.0625 C6.041875 5.031875 6.02125 6.00125 6 7 C3.69 6.67 1.38 6.34 -1 6 C-0.67 4.02 -0.34 2.04 0 0 Z " fill="#C0C0C0" transform="translate(235,546)"/>
<path d="M0 0 C1.98 0 3.96 0 6 0 C6.33 1.98 6.66 3.96 7 6 C4.69 6.33 2.38 6.66 0 7 C0 4.69 0 2.38 0 0 Z " fill="#BFBFBF" transform="translate(969,542)"/>
<path d="M0 0 C2.97 0.495 2.97 0.495 6 1 C6.042721 2.66611905 6.04063832 4.33382885 6 6 C5 7 5 7 1.9375 7.0625 C0.4834375 7.0315625 0.4834375 7.0315625 -1 7 C-0.67 4.69 -0.34 2.38 0 0 Z " fill="#C1C1C1" transform="translate(237,535)"/>
<path d="M0 0 C0.33 1.98 0.66 3.96 1 6 C-0.98 6.33 -2.96 6.66 -5 7 C-5.66 5.02 -6.32 3.04 -7 1 C-4.53721199 -0.231394 -2.7204945 -0.07159196 0 0 Z " fill="#C1C1C1" transform="translate(971,521)"/>
<path d="M0 0 C0.33 1.98 0.66 3.96 1 6 C-0.98 6.33 -2.96 6.66 -5 7 C-5.33 5.02 -5.66 3.04 -6 1 C-4 0 -4 0 0 0 Z " fill="#BEBEBE" transform="translate(959,480)"/>
<path d="M0 0 C0.33 1.65 0.66 3.3 1 5 C-0.98 5.33 -2.96 5.66 -5 6 C-7 3 -7 3 -7 0 C-3.86650268 -1.04449911 -3.01031744 -0.93423645 0 0 Z " fill="#C0C0C0" transform="translate(956,471)"/>
<path d="M0 0 C1.98 0.66 3.96 1.32 6 2 C5.67 3.65 5.34 5.3 5 7 C4.01 7.33 3.02 7.66 2 8 C-0.1875 6.5625 -0.1875 6.5625 -2 5 C-1.34 3.35 -0.68 1.7 0 0 Z " fill="#C2C2C2" transform="translate(266,444)"/>
<path d="M0 0 C1.65 0.33 3.3 0.66 5 1 C5.33 1.99 5.66 2.98 6 4 C4.5625 6.1875 4.5625 6.1875 3 8 C1.35 7.01 -0.3 6.02 -2 5 C-1.34 3.35 -0.68 1.7 0 0 Z " fill="#C0C0C0" transform="translate(271,435)"/>
<path d="M0 0 C0.66 1.65 1.32 3.3 2 5 C0.02 5.99 -1.96 6.98 -4 8 C-6 5 -6 5 -5.75 2.875 C-4.52320096 -0.19199761 -3.19812962 0 0 0 Z " fill="#C0C0C0" transform="translate(938,431)"/>
<path d="M0 0 C1.32 1.32 2.64 2.64 4 4 C3.67 4.99 3.34 5.98 3 7 C1.35 7.33 -0.3 7.66 -2 8 C-2.66 6.35 -3.32 4.7 -4 3 C-2.68 2.01 -1.36 1.02 0 0 Z " fill="#C2C2C2" transform="translate(914,394)"/>
<path d="M0 0 C1.65 1.65 3.3 3.3 5 5 C3.35 6.32 1.7 7.64 0 9 C-1.32 7.35 -2.64 5.7 -4 4 C-2.68 2.68 -1.36 1.36 0 0 Z " fill="#C0C0C0" transform="translate(348,332)"/>
<path d="M0 0 C0.99 0.33 1.98 0.66 3 1 C4.1875 3.5625 4.1875 3.5625 5 6 C3.02 6.66 1.04 7.32 -1 8 C-3 5 -3 5 -2.75 2.875 C-2 1 -2 1 0 0 Z " fill="#C2C2C2" transform="translate(434,271)"/>
<path d="M0 0 C0.33 1.98 0.66 3.96 1 6 C-0.65 6.66 -2.3 7.32 -4 8 C-6 5 -6 5 -6 1 C-3 0 -3 0 0 0 Z " fill="#C1C1C1" transform="translate(466,258)"/>
<path d="M0 0 C1.98 0.66 3.96 1.32 6 2 C5.67 3.65 5.34 5.3 5 7 C2 8 2 8 -0.1875 7.0625 C-0.785625 6.711875 -1.38375 6.36125 -2 6 C-1.34 4.02 -0.68 2.04 0 0 Z " fill="#C0C0C0" transform="translate(731,252)"/>
<path d="M0 0 C0.33 1.98 0.66 3.96 1 6 C-0.98 6.66 -2.96 7.32 -5 8 C-5.33 5.69 -5.66 3.38 -6 1 C-3 0 -3 0 0 0 Z " fill="#C2C2C2" transform="translate(496,247)"/>
<path d="M0 0 C2.97 0.495 2.97 0.495 6 1 C5.67 2.98 5.34 4.96 5 7 C2.69 6.67 0.38 6.34 -2 6 C-1.34 4.02 -0.68 2.04 0 0 Z " fill="#C0C0C0" transform="translate(711,246)"/>
<path d="M0 0 C0.38133299 1.9914056 0.71325582 3.99279077 1 6 C0 7 0 7 -2.5625 7.0625 C-3.7690625 7.0315625 -3.7690625 7.0315625 -5 7 C-5.33 5.02 -5.66 3.04 -6 1 C-3 0 -3 0 0 0 Z " fill="#BFBFBF" transform="translate(506,244)"/>
<path d="M0 0 C2.00720923 0.28674418 4.0085944 0.61866701 6 1 C5.67 2.98 5.34 4.96 5 7 C3.33388095 7.042721 1.66617115 7.04063832 0 7 C-1 6 -1 6 -1.125 3.5 C-1 1 -1 1 0 0 Z " fill="#C1C1C1" transform="translate(680,238)"/>
<path d="M0 0 C2.97 0.495 2.97 0.495 6 1 C6 2.98 6 4.96 6 7 C3.69 6.67 1.38 6.34 -1 6 C-0.67 4.02 -0.34 2.04 0 0 Z " fill="#BFBFBF" transform="translate(669,236)"/>
<path d="M0 0 C2.00720923 0.28674418 4.0085944 0.61866701 6 1 C5.67 2.98 5.34 4.96 5 7 C3.02 7 1.04 7 -1 7 C-1.04254356 5.00045254 -1.04080783 2.99958364 -1 1 C-0.67 0.67 -0.34 0.34 0 0 Z " fill="#C1C1C1" transform="translate(659,234)"/>
<path d="M0 0 C1.66611905 -0.042721 3.33382885 -0.04063832 5 0 C6 1 6 1 6.0625 4.0625 C6.041875 5.031875 6.02125 6.00125 6 7 C3.69 6.67 1.38 6.34 -1 6 C-0.67 4.02 -0.34 2.04 0 0 Z " fill="#C1C1C1" transform="translate(648,233)"/>
<path d="M0 0 C2.31 0 4.62 0 7 0 C6.67 2.31 6.34 4.62 6 7 C3.03 6.505 3.03 6.505 0 6 C0 4.02 0 2.04 0 0 Z " fill="#C0C0C0" transform="translate(637,232)"/>
<path d="M0 0 C0 2.31 0 4.62 0 7 C-1.98 7 -3.96 7 -6 7 C-6.33 5.02 -6.66 3.04 -7 1 C-2.25 0 -2.25 0 0 0 Z " fill="#BFBFBF" transform="translate(580,231)"/>
<path d="M0 0 C2.31 0 4.62 0 7 0 C6.67 2.31 6.34 4.62 6 7 C3.03 6.505 3.03 6.505 0 6 C0 4.02 0 2.04 0 0 Z " fill="#C3C3C3" transform="translate(557,971)"/>
<path d="M0 0 C2.31 0 4.62 0 7 0 C7 1.98 7 3.96 7 6 C5.02 6.33 3.04 6.66 1 7 C0.67 4.69 0.34 2.38 0 0 Z " fill="#C2C2C2" transform="translate(662,969)"/>
<path d="M0 0 C2.31 0 4.62 0 7 0 C6.67 2.31 6.34 4.62 6 7 C3.03 6.505 3.03 6.505 0 6 C0 4.02 0 2.04 0 0 Z " fill="#C2C2C2" transform="translate(536,968)"/>
<path d="M0 0 C2.97 0.495 2.97 0.495 6 1 C5.67 2.98 5.34 4.96 5 7 C3.35 7 1.7 7 0 7 C-1.125 2.25 -1.125 2.25 0 0 Z " fill="#C0C0C0" transform="translate(516,963)"/>
<path d="M0 0 C0.33 1.98 0.66 3.96 1 6 C-0.98 6.33 -2.96 6.66 -5 7 C-5.33 5.02 -5.66 3.04 -6 1 C-3 0 -3 0 0 0 Z " fill="#C1C1C1" transform="translate(245,683)"/>
<path d="M0 0 C1.2065625 0.0309375 1.2065625 0.0309375 2.4375 0.0625 C2.7675 2.0425 3.0975 4.0225 3.4375 6.0625 C1.4575 6.3925 -0.5225 6.7225 -2.5625 7.0625 C-2.94383299 5.0710944 -3.27575582 3.06970923 -3.5625 1.0625 C-2.5625 0.0625 -2.5625 0.0625 0 0 Z " fill="#BFBFBF" transform="translate(240.5625,672.9375)"/>
<path d="M0 0 C0.38133299 1.9914056 0.71325582 3.99279077 1 6 C0 7 0 7 -2.5625 7.0625 C-3.7690625 7.0315625 -3.7690625 7.0315625 -5 7 C-5.33 5.02 -5.66 3.04 -6 1 C-3.92446352 0.4465236 -2.15634036 0 0 0 Z " fill="#C0C0C0" transform="translate(241,662)"/>
<path d="M0 0 C2.97 0.495 2.97 0.495 6 1 C6 2.98 6 4.96 6 7 C3.69 7 1.38 7 -1 7 C-0.67 4.69 -0.34 2.38 0 0 Z " fill="#BFBFBF" transform="translate(970,657)"/>
<path d="M0 0 C0.38133299 1.9914056 0.71325582 3.99279077 1 6 C0 7 0 7 -2.5 7.125 C-5 7 -5 7 -6 6 C-6.04063832 4.33382885 -6.042721 2.66611905 -6 1 C-3 0 -3 0 0 0 Z " fill="#C0C0C0" transform="translate(973,531)"/>
<path d="M0 0 C2.97 0.495 2.97 0.495 6 1 C5.67 2.98 5.34 4.96 5 7 C2.03 6.505 2.03 6.505 -1 6 C-0.67 4.02 -0.34 2.04 0 0 Z " fill="#BFBFBF" transform="translate(239,525)"/>
<path d="M0 0 C2.97 0.495 2.97 0.495 6 1 C5.67 3.31 5.34 5.62 5 8 C3.02 7.34 1.04 6.68 -1 6 C-0.67 4.02 -0.34 2.04 0 0 Z " fill="#C0C0C0" transform="translate(244,504)"/>
<path d="M0 0 C2.97 0.495 2.97 0.495 6 1 C5.67 2.98 5.34 4.96 5 7 C2.03 6.505 2.03 6.505 -1 6 C-0.67 4.02 -0.34 2.04 0 0 Z " fill="#BFBFBF" transform="translate(247,494)"/>
<path d="M0 0 C2.97 0.495 2.97 0.495 6 1 C5.67 2.98 5.34 4.96 5 7 C2.03 6.505 2.03 6.505 -1 6 C-0.67 4.02 -0.34 2.04 0 0 Z " fill="#C0C0C0" transform="translate(250,484)"/>
<path d="M0 0 C1.32 0.66 2.64 1.32 4 2 C4 3.32 4 4.64 4 6 C2.02 6.99 2.02 6.99 0 8 C-0.99 7.01 -1.98 6.02 -3 5 C-1.125 1.125 -1.125 1.125 0 0 Z " fill="#BFBFBF" transform="translate(340,340)"/>
<path d="M0 0 C0.33 1.98 0.66 3.96 1 6 C-0.9914056 6.38133299 -2.99279077 6.71325582 -5 7 C-6 6 -6 6 -6.0625 3.4375 C-6.041875 2.633125 -6.02125 1.82875 -6 1 C-4 0 -4 0 0 0 Z " fill="#C1C1C1" transform="translate(527,239)"/>
<path d="M0 0 C0.33 1.98 0.66 3.96 1 6 C-1.31 6.33 -3.62 6.66 -6 7 C-6.33 5.02 -6.66 3.04 -7 1 C-4 0 -4 0 0 0 Z " fill="#C1C1C1" transform="translate(548,235)"/>
<path d="M0 0 C2 2 2 2 2.125 4.625 C2.08375 5.40875 2.0425 6.1925 2 7 C0.02 7 -1.96 7 -4 7 C-4.33 5.02 -4.66 3.04 -5 1 C-2.625 0.375 -2.625 0.375 0 0 Z " fill="#BFBFBF" transform="translate(557,233)"/>
<path d="M0 0 C1.98 0 3.96 0 6 0 C6.33 1.98 6.66 3.96 7 6 C4.69 6 2.38 6 0 6 C0 4.02 0 2.04 0 0 Z " fill="#C0C0C0" transform="translate(631,973)"/>
<path d="M0 0 C0.33 1.98 0.66 3.96 1 6 C-0.98 6.33 -2.96 6.66 -5 7 C-5.33 5.02 -5.66 3.04 -6 1 C-4 0 -4 0 0 0 Z " fill="#BFBFBF" transform="translate(730,953)"/>
<path d="M0 0 C1.98 0 3.96 0 6 0 C6 1.98 6 3.96 6 6 C4.02 6.33 2.04 6.66 0 7 C0 4.69 0 2.38 0 0 Z " fill="#BFBFBF" transform="translate(234,652)"/>
<path d="M0 0 C0.33 1.98 0.66 3.96 1 6 C-0.98 6.33 -2.96 6.66 -5 7 C-5.33 5.02 -5.66 3.04 -6 1 C-4 0 -4 0 0 0 Z " fill="#BFBFBF" transform="translate(537,237)"/>
<path d="M0 0 C0 2.31 0 4.62 0 7 C-1.98 7 -3.96 7 -6 7 C-6 5.02 -6 3.04 -6 1 C-3 0 -3 0 0 0 Z " fill="#C0C0C0" transform="translate(569,232)"/>
<path d="M0 0 C2.31 0 4.62 0 7 0 C6.67 1.98 6.34 3.96 6 6 C4.02 6 2.04 6 0 6 C0 4.02 0 2.04 0 0 Z " fill="#C0C0C0" transform="translate(578,973)"/>
<path d="M0 0 C2.31 0 4.62 0 7 0 C7 1.98 7 3.96 7 6 C5.02 6 3.04 6 1 6 C0.67 4.02 0.34 2.04 0 0 Z " fill="#C0C0C0" transform="translate(231,631)"/>
<path d="M0 0 C2.97 0.495 2.97 0.495 6 1 C6 2.98 6 4.96 6 7 C4.02 7 2.04 7 0 7 C0 4.69 0 2.38 0 0 Z " fill="#C0C0C0" transform="translate(231,588)"/>
<path d="M0 0 C0 2.31 0 4.62 0 7 C-1.98 7 -3.96 7 -6 7 C-6 5.02 -6 3.04 -6 1 C-3.92446352 0.4465236 -2.15634036 0 0 0 Z " fill="#C2C2C2" transform="translate(979,573)"/>
<path d="M0 0 C1.98 0 3.96 0 6 0 C6 1.98 6 3.96 6 6 C4.02 6.33 2.04 6.66 0 7 C0 4.69 0 2.38 0 0 Z " fill="#C0C0C0" transform="translate(972,563)"/>
<path d="M0 0 C0 2.31 0 4.62 0 7 C-1.98 7 -3.96 7 -6 7 C-6 5.02 -6 3.04 -6 1 C-1.125 0 -1.125 0 0 0 Z " fill="#BFBFBF" transform="translate(648,971)"/>
<path d="M0 0 C2.31 0 4.62 0 7 0 C6.67 1.98 6.34 3.96 6 6 C4.02 6 2.04 6 0 6 C0 4.02 0 2.04 0 0 Z " fill="#C1C1C1" transform="translate(973,626)"/>
<path d="M0 0 C1.98 0 3.96 0 6 0 C6 1.98 6 3.96 6 6 C4.02 6 2.04 6 0 6 C0 4.02 0 2.04 0 0 Z " fill="#C0C0C0" transform="translate(589,974)"/>
<path d="M0 0 C1.98 0 3.96 0 6 0 C6 1.98 6 3.96 6 6 C4.02 6 2.04 6 0 6 C0 4.02 0 2.04 0 0 Z " fill="#BFBFBF" transform="translate(584,231)"/>
</svg>
